<svg width="1036" height="783" viewBox="0 0 1036 783" fill="none" xmlns="http://www.w3.org/2000/svg">
<g clip-path="url(#clip0_114_125)">
<path d="M427.025 542.509C427.025 569.532 406.047 591.439 380.169 591.439C354.291 591.439 333.313 569.533 333.313 542.509C333.313 541.897 333.323 541.288 333.348 540.681C333.823 513.663 355.189 492.17 381.062 492.674C406.935 493.179 427.516 515.491 427.033 542.509H427.025Z" fill="#A29BE2"/>
<path d="M363.669 564.24L350.174 546.239L353.369 543.84L364.364 558.505L407.65 523.08L410.181 526.174L363.669 564.24Z" fill="white"/>
<path d="M682.122 275.096C683.091 275.54 684.024 276.06 684.91 276.652L773.539 238.812L776.701 215.458L812.115 215.24L810.023 268.809L693.042 299.76C692.795 300.572 692.499 301.369 692.156 302.146C690.465 305.756 687.744 308.786 684.337 310.855C680.93 312.923 676.988 313.939 673.006 313.774C669.024 313.608 665.179 312.27 661.955 309.926C658.731 307.582 656.271 304.338 654.884 300.6C653.497 296.862 653.245 292.798 654.159 288.917C655.074 285.037 657.114 281.513 660.024 278.789C662.934 276.064 666.584 274.261 670.515 273.605C674.447 272.949 678.484 273.469 682.12 275.101L682.122 275.096Z" fill="#A0616A"/>
<path d="M824.994 760.497H800.767L789.243 667.023H824.997L824.994 760.497Z" fill="#A0616A"/>
<path d="M783.464 753.574H830.185V782.992H754.046C754.046 775.187 757.146 767.702 762.663 762.183C768.179 756.664 775.662 753.564 783.464 753.564V753.564V753.574Z" fill="#1B1E29"/>
<path d="M919.211 753.649L895.104 756.022L874.474 664.128L910.057 660.631L919.211 753.649Z" fill="#A0616A"/>
<path d="M877.188 750.836L923.676 746.255L926.559 775.536L850.803 783C850.039 775.235 852.389 767.484 857.337 761.453C862.284 755.421 869.425 751.602 877.187 750.836H877.188Z" fill="#1B1E29"/>
<path d="M831.737 116.311C858.541 116.311 880.27 94.5746 880.27 67.7613C880.27 40.948 858.541 19.2115 831.737 19.2115C804.933 19.2115 783.204 40.948 783.204 67.7613C783.204 94.5746 804.933 116.311 831.737 116.311Z" fill="#A0616A"/>
<path d="M795.353 741.593C793.271 741.597 791.254 740.865 789.658 739.527C788.062 738.189 786.989 736.331 786.629 734.279C774.098 664.661 733.102 436.98 732.121 430.668C732.099 430.523 732.088 430.377 732.089 430.23V413.252C732.088 412.634 732.281 412.031 732.641 411.528L738.055 403.947C738.312 403.582 738.65 403.281 739.042 403.067C739.434 402.853 739.87 402.731 740.316 402.712C771.19 401.264 872.284 397.02 877.167 403.124C882.072 409.252 880.329 427.848 879.933 431.511L879.953 431.892L925.375 722.467C925.73 724.785 925.159 727.15 923.785 729.049C922.41 730.949 920.343 732.231 918.031 732.617L889.663 737.292C887.55 737.631 885.386 737.201 883.563 736.079C881.741 734.957 880.382 733.218 879.733 731.178C870.959 703.132 841.538 608.784 831.341 572.275C831.286 572.034 831.143 571.823 830.939 571.683C830.736 571.544 830.487 571.486 830.243 571.521C829.999 571.557 829.777 571.683 829.621 571.874C829.466 572.066 829.388 572.309 829.403 572.555C829.913 607.357 831.144 696.146 831.577 726.813L831.622 730.117C831.641 732.353 830.82 734.514 829.323 736.175C827.825 737.835 825.76 738.873 823.535 739.083L796.18 741.562C795.905 741.586 795.629 741.597 795.353 741.593Z" fill="#1B1E29"/>
<path d="M800.936 135.402C792.466 140.439 787.398 149.694 784.49 159.128C779.106 176.564 775.865 194.592 774.839 212.813L771.764 267.367L733.714 412.004C766.693 439.917 785.713 433.571 830.106 410.74C874.499 387.909 879.57 418.352 879.57 418.352L888.446 295.285L901.128 160.805C898.281 157.376 895.059 154.277 891.521 151.566C879.799 142.446 866.16 136.106 851.632 133.024C837.105 129.942 822.068 130.199 807.654 133.775L800.936 135.402Z" fill="#A29BE2"/>
<path d="M788.578 304.307C789.6 304.689 790.592 305.152 791.542 305.691L879.178 261.807L880.632 238.036L916.782 235.543L918.718 289.732L801.607 328.478C800.651 332.584 798.469 336.301 795.35 339.135C792.231 341.969 788.323 343.786 784.147 344.344C779.97 344.902 775.723 344.175 771.97 342.259C768.216 340.343 765.135 337.33 763.136 333.619C761.137 329.909 760.314 325.677 760.778 321.488C761.242 317.298 762.97 313.35 765.732 310.166C768.494 306.983 772.16 304.717 776.241 303.669C780.322 302.621 784.626 302.841 788.579 304.3L788.578 304.307Z" fill="#A0616A"/>
<path d="M900.497 161.41C922.057 169.022 925.857 251.497 925.857 251.497C900.491 237.542 870.052 260.378 870.052 260.378C870.052 260.378 863.712 238.808 856.101 210.898C853.803 203.047 853.529 194.741 855.302 186.755C857.076 178.769 860.841 171.362 866.246 165.223C866.246 165.223 878.934 153.794 900.497 161.41Z" fill="#A29BE2"/>
<path d="M875.246 80.5968C869.199 75.7577 860.95 84.5501 860.95 84.5501L856.112 41.0079C856.112 41.0079 825.88 44.6312 806.526 39.7977C787.172 34.9642 784.152 57.346 784.152 57.346C783.154 48.3071 782.951 39.1981 783.547 30.1237C784.756 19.2354 800.477 8.34701 828.293 1.08764C856.11 -6.17174 870.622 25.2846 870.622 25.2846C889.983 34.9558 881.3 85.4416 875.246 80.5968Z" fill="#1B1E29"/>
<path d="M226.125 63.9484C224.97 63.9505 223.863 64.411 223.047 65.2288C222.231 66.0466 221.773 67.1549 221.773 68.3104C221.773 69.4659 222.231 70.5742 223.047 71.3921C223.863 72.2099 224.97 72.6704 226.125 72.6725H544.493C545.649 72.6704 546.756 72.2099 547.572 71.3921C548.388 70.5742 548.846 69.4659 548.846 68.3104C548.846 67.1549 548.388 66.0466 547.572 65.2288C546.756 64.411 545.649 63.9505 544.493 63.9484H226.125Z" fill="#CCCCCC"/>
<path d="M226.125 90.1205C224.97 90.1197 223.861 90.5776 223.043 91.3938C222.225 92.2099 221.764 93.3175 221.762 94.4733C221.759 95.6291 222.216 96.7387 223.03 97.5582C223.845 98.3778 224.952 98.8404 226.107 98.8445H427.382C427.955 98.8445 428.522 98.7317 429.051 98.5125C429.58 98.2933 430.061 97.972 430.466 97.5669C430.871 97.1618 431.192 96.681 431.411 96.1518C431.63 95.6225 431.743 95.0553 431.743 94.4825C431.743 93.9097 431.63 93.3424 431.411 92.8132C431.192 92.284 430.871 91.8031 430.466 91.3981C430.061 90.993 429.58 90.6717 429.051 90.4525C428.522 90.2333 427.955 90.1205 427.382 90.1205H226.125Z" fill="#CCCCCC"/>
<path d="M540.503 30.6032C540.503 41.1803 532.292 49.7547 522.163 49.7547C512.034 49.7547 503.824 41.1803 503.824 30.6032C503.824 30.3634 503.827 30.1254 503.837 29.8876C504.023 19.3126 512.386 10.9002 522.513 11.0976C532.64 11.2951 540.695 20.0281 540.506 30.6032H540.503Z" fill="#A29BE2"/>
<path d="M515.705 39.1086L510.423 32.0631L511.674 31.1239L515.977 36.8637L532.92 22.9986L533.91 24.2096L515.705 39.1086Z" fill="white"/>
<path d="M226.125 223.989C224.97 223.991 223.863 224.451 223.047 225.269C222.231 226.087 221.773 227.195 221.773 228.351C221.773 229.506 222.231 230.615 223.047 231.432C223.863 232.25 224.97 232.711 226.125 232.713H544.493C545.649 232.711 546.756 232.25 547.572 231.432C548.388 230.615 548.846 229.506 548.846 228.351C548.846 227.195 548.388 226.087 547.572 225.269C546.756 224.451 545.649 223.991 544.493 223.989H226.125Z" fill="#CCCCCC"/>
<path d="M226.125 250.161C224.97 250.16 223.861 250.618 223.043 251.434C222.225 252.25 221.764 253.358 221.762 254.514C221.759 255.67 222.216 256.779 223.03 257.599C223.845 258.418 224.952 258.881 226.107 258.885H427.382C428.539 258.885 429.648 258.425 430.466 257.607C431.284 256.789 431.743 255.68 431.743 254.523C431.743 253.366 431.284 252.257 430.466 251.438C429.648 250.62 428.539 250.161 427.382 250.161H226.125Z" fill="#CCCCCC"/>
<path d="M539.099 190.644C539.099 201.221 530.889 209.795 520.76 209.795C510.631 209.795 502.42 201.221 502.42 190.644C502.42 190.404 502.424 190.166 502.434 189.928C502.62 179.353 510.983 170.94 521.109 171.138C531.236 171.335 539.292 180.068 539.103 190.644H539.099Z" fill="#A29BE2"/>
<path d="M514.302 199.149L509.02 192.103L510.27 191.164L514.574 196.904L531.516 183.039L532.507 184.25L514.302 199.149Z" fill="white"/>
<path d="M226.125 384.029C224.97 384.031 223.863 384.492 223.047 385.31C222.231 386.127 221.773 387.236 221.773 388.391C221.773 389.547 222.231 390.655 223.047 391.473C223.863 392.291 224.97 392.751 226.125 392.753H544.493C545.649 392.751 546.756 392.291 547.572 391.473C548.388 390.655 548.846 389.547 548.846 388.391C548.846 387.236 548.388 386.127 547.572 385.31C546.756 384.492 545.649 384.031 544.493 384.029H226.125Z" fill="#CCCCCC"/>
<path d="M226.125 410.201C224.97 410.2 223.861 410.658 223.043 411.474C222.225 412.291 221.764 413.398 221.762 414.554C221.759 415.71 222.216 416.819 223.03 417.639C223.845 418.459 224.952 418.921 226.107 418.925H427.382C428.539 418.925 429.648 418.466 430.466 417.648C431.284 416.83 431.743 415.72 431.743 414.563C431.743 413.406 431.284 412.297 430.466 411.479C429.648 410.661 428.539 410.201 427.382 410.201H226.125Z" fill="#CCCCCC"/>
<path d="M539.099 350.684C539.099 361.261 530.889 369.835 520.76 369.835C510.631 369.835 502.42 361.261 502.42 350.684C502.42 350.444 502.424 350.206 502.434 349.968C502.62 339.393 510.983 330.981 521.109 331.178C531.236 331.376 539.292 340.109 539.103 350.684H539.099Z" fill="#A29BE2"/>
<path d="M514.302 359.189L509.02 352.144L510.27 351.205L514.574 356.945L531.516 343.079L532.507 344.29L514.302 359.189Z" fill="white"/>
</g>
<defs>
<clipPath id="clip0_114_125">
<rect width="1036" height="783" fill="white"/>
</clipPath>
</defs>
</svg>
